<svg data-v-423bf9ae="" xmlns="http://www.w3.org/2000/svg" viewBox="0 0 1139 90" class="iconLeft"><!----><!----><!----><g data-v-423bf9ae="" id="51dd3780-a849-482a-9cd5-afa0adc2d26f" fill="black" transform="matrix(6.060606294135134,0,0,6.060606294135134,120.27666838365474,8.93939275219055)"><path d="M10.12 1.72L10.12 3.89Q9.86 3.76 9.42 3.60Q8.98 3.43 8.43 3.28Q7.88 3.14 7.23 3.04Q6.58 2.94 5.89 2.94L5.89 2.94Q5.35 2.94 4.96 2.97Q4.57 3.01 4.31 3.06Q4.05 3.12 3.89 3.19Q3.74 3.26 3.66 3.34Q3.58 3.41 3.55 3.49Q3.53 3.56 3.53 3.62L3.53 3.62Q3.53 3.83 3.73 3.98Q3.94 4.14 4.29 4.26Q4.65 4.38 5.12 4.48Q5.59 4.59 6.12 4.70Q6.65 4.81 7.22 4.95Q7.78 5.08 8.31 5.26Q8.84 5.43 9.31 5.67Q9.78 5.91 10.14 6.22Q10.49 6.54 10.70 6.95Q10.90 7.36 10.90 7.88L10.90 7.88Q10.90 8.56 10.66 9.04Q10.42 9.53 10.02 9.86Q9.63 10.20 9.10 10.40Q8.57 10.60 7.99 10.71Q7.42 10.82 6.83 10.86Q6.23 10.89 5.70 10.89L5.70 10.89Q4.31 10.89 3.12 10.66Q1.93 10.43 1.03 10.09L1.03 10.09L1.03 7.85Q1.96 8.37 3.16 8.66Q4.36 8.96 5.73 8.96L5.73 8.96Q6.54 8.96 7.04 8.87Q7.55 8.78 7.84 8.65Q8.13 8.52 8.23 8.36Q8.33 8.20 8.33 8.06L8.33 8.06Q8.33 7.83 8.13 7.67Q7.92 7.50 7.57 7.37Q7.21 7.25 6.74 7.14Q6.27 7.03 5.74 6.93Q5.21 6.82 4.65 6.70Q4.09 6.58 3.56 6.41Q3.03 6.24 2.56 6.02Q2.08 5.80 1.73 5.49Q1.37 5.19 1.17 4.79Q0.96 4.39 0.96 3.86L0.96 3.86Q0.96 3.24 1.18 2.79Q1.40 2.34 1.77 2.02Q2.15 1.70 2.64 1.50Q3.12 1.31 3.66 1.20Q4.20 1.09 4.76 1.05Q5.31 1.00 5.81 1.00L5.81 1.00Q6.36 1.00 6.94 1.06Q7.51 1.11 8.07 1.21Q8.63 1.31 9.16 1.44Q9.68 1.57 10.12 1.72L10.12 1.72ZM24.83 10.64L22.29 10.64L22.29 6.72L15.84 6.72L15.84 10.64L13.30 10.64L13.30 1.24L15.84 1.24L15.84 4.66L22.29 4.66L22.29 1.24L24.83 1.24L24.83 10.64ZM38.27 10.64L35.73 10.64L35.73 9.71Q35.25 9.98 34.69 10.19Q34.13 10.39 33.53 10.53Q32.93 10.68 32.29 10.75Q31.65 10.82 31.00 10.82L31.00 10.82Q30.24 10.82 29.53 10.68Q28.83 10.53 28.28 10.21Q27.73 9.89 27.40 9.37Q27.07 8.85 27.07 8.10L27.07 8.10Q27.07 7.15 27.59 6.52Q28.11 5.89 29.18 5.48Q30.24 5.08 31.87 4.86Q33.50 4.64 35.73 4.52L35.73 4.52L35.73 4.32Q35.73 4.09 35.61 3.86Q35.49 3.63 35.16 3.46Q34.84 3.28 34.27 3.17Q33.71 3.06 32.83 3.06L32.83 3.06Q32.14 3.06 31.47 3.13Q30.80 3.21 30.17 3.33Q29.54 3.45 28.98 3.62Q28.42 3.78 27.97 3.96L27.97 3.96L27.97 1.70Q28.44 1.58 29.04 1.46Q29.63 1.35 30.28 1.26Q30.92 1.18 31.58 1.12Q32.23 1.07 32.83 1.07L32.83 1.07Q34.02 1.07 35.01 1.27Q36.01 1.46 36.73 1.87Q37.45 2.28 37.86 2.91Q38.27 3.54 38.27 4.41L38.27 4.41L38.27 10.64ZM35.73 7.59L35.73 6.35Q34.27 6.41 33.25 6.51Q32.22 6.61 31.55 6.75Q30.87 6.88 30.48 7.04Q30.10 7.20 29.91 7.36Q29.72 7.53 29.67 7.69Q29.63 7.85 29.63 7.99L29.63 7.99Q29.63 8.16 29.72 8.31Q29.80 8.46 30.03 8.58Q30.25 8.70 30.62 8.76Q30.99 8.83 31.55 8.83L31.55 8.83Q32.17 8.83 32.76 8.74Q33.36 8.64 33.89 8.47Q34.43 8.31 34.89 8.08Q35.36 7.85 35.73 7.59L35.73 7.59ZM52.67 10.64L50.09 10.64Q50.02 9.87 49.72 9.29Q49.42 8.72 48.96 8.30Q48.51 7.88 47.94 7.61Q47.37 7.33 46.76 7.17Q46.16 7.01 45.56 6.95Q44.97 6.88 44.45 6.88L44.45 6.88L43.70 6.88L43.70 10.64L41.17 10.64L41.17 1.24L43.70 1.24L43.70 4.87L44.22 4.87Q44.75 4.87 45.32 4.79Q45.90 4.70 46.46 4.53Q47.02 4.35 47.54 4.07Q48.06 3.79 48.47 3.38Q48.88 2.98 49.16 2.45Q49.43 1.92 49.50 1.24L49.50 1.24L52.08 1.24Q52.01 1.99 51.79 2.59Q51.56 3.19 51.22 3.67Q50.88 4.14 50.46 4.50Q50.05 4.85 49.61 5.11Q49.17 5.37 48.74 5.53Q48.30 5.70 47.93 5.79L47.93 5.79Q48.41 5.87 48.92 6.03Q49.44 6.19 49.94 6.45Q50.45 6.71 50.91 7.10Q51.37 7.48 51.74 7.99Q52.11 8.50 52.36 9.16Q52.60 9.82 52.67 10.64L52.67 10.64ZM65.34 10.64L62.81 10.64L62.81 9.71Q62.32 9.98 61.77 10.19Q61.21 10.39 60.61 10.53Q60.01 10.68 59.37 10.75Q58.73 10.82 58.08 10.82L58.08 10.82Q57.32 10.82 56.61 10.68Q55.90 10.53 55.36 10.21Q54.81 9.89 54.48 9.37Q54.15 8.85 54.15 8.10L54.15 8.10Q54.15 7.15 54.67 6.52Q55.19 5.89 56.25 5.48Q57.32 5.08 58.95 4.86Q60.58 4.64 62.81 4.52L62.81 4.52L62.81 4.32Q62.81 4.09 62.69 3.86Q62.56 3.63 62.24 3.46Q61.91 3.28 61.35 3.17Q60.79 3.06 59.91 3.06L59.91 3.06Q59.22 3.06 58.55 3.13Q57.87 3.21 57.25 3.33Q56.62 3.45 56.06 3.62Q55.50 3.78 55.04 3.96L55.04 3.96L55.04 1.70Q55.52 1.58 56.12 1.46Q56.71 1.35 57.35 1.26Q58.00 1.18 58.65 1.12Q59.31 1.07 59.91 1.07L59.91 1.07Q61.09 1.07 62.09 1.27Q63.09 1.46 63.81 1.87Q64.53 2.28 64.94 2.91Q65.34 3.54 65.34 4.41L65.34 4.41L65.34 10.64ZM62.81 7.59L62.81 6.35Q61.35 6.41 60.32 6.51Q59.30 6.61 58.63 6.75Q57.95 6.88 57.56 7.04Q57.18 7.20 56.98 7.36Q56.79 7.53 56.75 7.69Q56.70 7.85 56.70 7.99L56.70 7.99Q56.70 8.16 56.79 8.31Q56.88 8.46 57.10 8.58Q57.33 8.70 57.70 8.76Q58.06 8.83 58.63 8.83L58.63 8.83Q59.25 8.83 59.84 8.74Q60.44 8.64 60.97 8.47Q61.50 8.31 61.97 8.08Q62.44 7.85 62.81 7.59L62.81 7.59ZM82.16 1.72L82.16 3.89Q81.89 3.76 81.46 3.60Q81.02 3.43 80.47 3.28Q79.91 3.14 79.26 3.04Q78.61 2.94 77.93 2.94L77.93 2.94Q77.38 2.94 77.00 2.97Q76.61 3.01 76.35 3.06Q76.08 3.12 75.93 3.19Q75.78 3.26 75.69 3.34Q75.61 3.41 75.59 3.49Q75.56 3.56 75.56 3.62L75.56 3.62Q75.56 3.83 75.77 3.98Q75.97 4.14 76.33 4.26Q76.69 4.38 77.16 4.48Q77.63 4.59 78.16 4.70Q78.69 4.81 79.25 4.95Q79.82 5.08 80.35 5.26Q80.88 5.43 81.35 5.67Q81.82 5.91 82.17 6.22Q82.53 6.54 82.74 6.95Q82.94 7.36 82.94 7.88L82.94 7.88Q82.94 8.56 82.70 9.04Q82.46 9.53 82.06 9.86Q81.66 10.20 81.14 10.40Q80.61 10.60 80.03 10.71Q79.45 10.82 78.86 10.86Q78.27 10.89 77.74 10.89L77.74 10.89Q76.34 10.89 75.16 10.66Q73.97 10.43 73.06 10.09L73.06 10.09L73.06 7.85Q74.00 8.37 75.20 8.66Q76.40 8.96 77.77 8.96L77.77 8.96Q78.57 8.96 79.08 8.87Q79.59 8.78 79.88 8.65Q80.17 8.52 80.27 8.36Q80.37 8.20 80.37 8.06L80.37 8.06Q80.37 7.83 80.17 7.67Q79.96 7.50 79.60 7.37Q79.25 7.25 78.78 7.14Q78.31 7.03 77.78 6.93Q77.25 6.82 76.69 6.70Q76.13 6.58 75.60 6.41Q75.07 6.24 74.59 6.02Q74.12 5.80 73.77 5.49Q73.41 5.19 73.21 4.79Q73.00 4.39 73.00 3.86L73.00 3.86Q73.00 3.24 73.22 2.79Q73.44 2.34 73.81 2.02Q74.18 1.70 74.67 1.50Q75.16 1.31 75.70 1.20Q76.24 1.09 76.79 1.05Q77.35 1.00 77.85 1.00L77.85 1.00Q78.39 1.00 78.97 1.06Q79.55 1.11 80.11 1.21Q80.67 1.31 81.19 1.44Q81.72 1.57 82.16 1.72L82.16 1.72ZM97.49 5.95L97.49 5.95Q97.49 7.16 97.05 8.08Q96.61 9.01 95.78 9.63Q94.95 10.25 93.77 10.57Q92.59 10.89 91.12 10.89L91.12 10.89Q89.65 10.89 88.47 10.57Q87.28 10.25 86.45 9.63Q85.61 9.01 85.16 8.08Q84.71 7.16 84.71 5.95L84.71 5.95Q84.71 4.74 85.16 3.81Q85.61 2.88 86.45 2.26Q87.28 1.64 88.47 1.32Q89.65 1.00 91.12 1.00L91.12 1.00Q92.59 1.00 93.77 1.32Q94.95 1.64 95.78 2.26Q96.61 2.88 97.05 3.81Q97.49 4.74 97.49 5.95ZM94.93 5.95L94.93 5.95Q94.93 5.42 94.76 4.90Q94.60 4.38 94.17 3.96Q93.74 3.54 93.00 3.28Q92.26 3.02 91.12 3.02L91.12 3.02Q90.36 3.02 89.78 3.14Q89.20 3.26 88.77 3.47Q88.35 3.68 88.06 3.97Q87.77 4.25 87.60 4.58Q87.43 4.90 87.36 5.25Q87.29 5.61 87.29 5.95L87.29 5.95Q87.29 6.30 87.36 6.65Q87.43 7.01 87.60 7.33Q87.77 7.66 88.06 7.94Q88.35 8.22 88.77 8.43Q89.20 8.63 89.78 8.75Q90.36 8.87 91.12 8.87L91.12 8.87Q92.26 8.87 93.00 8.61Q93.74 8.35 94.17 7.94Q94.60 7.52 94.76 7.00Q94.93 6.47 94.93 5.95ZM99.76 1.24L102.30 1.24L102.30 6.54Q102.30 7.06 102.39 7.49Q102.48 7.92 102.72 8.22Q102.96 8.52 103.39 8.69Q103.82 8.86 104.51 8.86L104.51 8.86Q105.03 8.86 105.60 8.72Q106.17 8.57 106.73 8.33Q107.29 8.09 107.80 7.78Q108.31 7.47 108.71 7.14L108.71 7.14L108.71 1.24L111.24 1.24L111.24 10.64L108.71 10.64L108.71 9.35Q108.23 9.63 107.69 9.90Q107.15 10.18 106.54 10.40Q105.94 10.62 105.25 10.76Q104.57 10.90 103.81 10.90L103.81 10.90Q102.86 10.90 102.11 10.67Q101.36 10.45 100.84 10.02Q100.32 9.60 100.04 9.01Q99.76 8.41 99.76 7.67L99.76 7.67L99.76 1.24ZM122.82 3.37L122.82 3.37Q122.72 3.34 122.52 3.28Q122.33 3.22 122.07 3.16Q121.81 3.10 121.50 3.06Q121.19 3.02 120.86 3.02L120.86 3.02Q120.18 3.02 119.58 3.19Q118.99 3.36 118.48 3.63Q117.97 3.91 117.53 4.26Q117.09 4.61 116.72 4.98L116.72 4.98L116.72 10.64L114.18 10.64L114.18 1.24L116.72 1.24L116.72 2.77Q117.17 2.43 117.66 2.11Q118.14 1.79 118.66 1.54Q119.18 1.30 119.77 1.15Q120.35 1.00 121.00 1.00L121.00 1.00Q121.24 1.00 121.50 1.03Q121.75 1.05 122.00 1.09Q122.24 1.12 122.45 1.16Q122.66 1.20 122.82 1.24L122.82 1.24L122.82 3.37ZM134.78 9.99L134.78 9.99Q134.29 10.20 133.79 10.36Q133.29 10.53 132.75 10.65Q132.22 10.77 131.63 10.83Q131.04 10.89 130.36 10.89L130.36 10.89Q128.93 10.89 127.72 10.58Q126.51 10.27 125.64 9.66Q124.77 9.04 124.28 8.11Q123.80 7.18 123.80 5.95L123.80 5.95Q123.80 4.71 124.28 3.78Q124.77 2.86 125.64 2.24Q126.51 1.62 127.72 1.31Q128.93 1.00 130.36 1.00L130.36 1.00Q131.04 1.00 131.63 1.07Q132.22 1.13 132.75 1.25Q133.29 1.37 133.79 1.53Q134.29 1.70 134.78 1.90L134.78 1.90L134.78 4.18Q134.39 3.97 133.96 3.76Q133.53 3.55 133.01 3.39Q132.49 3.22 131.87 3.11Q131.24 3.01 130.46 3.01L130.46 3.01Q129.27 3.01 128.48 3.25Q127.69 3.50 127.22 3.91Q126.75 4.32 126.55 4.85Q126.36 5.38 126.36 5.95L126.36 5.95Q126.36 6.32 126.44 6.69Q126.53 7.05 126.72 7.38Q126.91 7.70 127.22 7.98Q127.52 8.25 127.98 8.45Q128.44 8.65 129.05 8.76Q129.66 8.87 130.46 8.87L130.46 8.87Q131.24 8.87 131.87 8.77Q132.49 8.67 133.01 8.51Q133.53 8.35 133.96 8.14Q134.39 7.93 134.78 7.71L134.78 7.71L134.78 9.99ZM139.68 10.64L137.14 10.64L137.14 1.24L139.68 1.24L139.68 10.64ZM154.10 10.64L151.57 10.64L151.57 5.37Q151.57 4.85 151.48 4.42Q151.39 3.99 151.15 3.69Q150.90 3.38 150.47 3.22Q150.04 3.05 149.35 3.05L149.35 3.05Q148.83 3.05 148.26 3.19Q147.69 3.33 147.13 3.56Q146.57 3.79 146.06 4.10Q145.55 4.41 145.15 4.74L145.15 4.74L145.15 10.64L142.62 10.64L142.62 1.24L145.15 1.24L145.15 2.53Q145.63 2.26 146.17 1.99Q146.71 1.72 147.32 1.50Q147.93 1.28 148.61 1.14Q149.30 1.00 150.06 1.00L150.06 1.00Q151.01 1.00 151.75 1.23Q152.50 1.46 153.02 1.88Q153.54 2.30 153.82 2.90Q154.10 3.50 154.10 4.24L154.10 4.24L154.10 10.64ZM163.04 1.00L163.04 1.00Q164.42 1.00 165.61 1.24Q166.80 1.48 167.79 1.85L167.79 1.85L167.79 4.14Q167.40 3.92 166.91 3.72Q166.42 3.51 165.85 3.36Q165.27 3.20 164.62 3.10Q163.96 3.01 163.24 3.01L163.24 3.01Q162.33 3.01 161.66 3.14Q160.99 3.27 160.51 3.49Q160.04 3.71 159.73 4.00Q159.42 4.29 159.24 4.61Q159.07 4.94 159.00 5.28Q158.93 5.63 158.93 5.95L158.93 5.95Q158.93 6.23 158.99 6.56Q159.04 6.88 159.21 7.21Q159.37 7.54 159.65 7.84Q159.94 8.14 160.40 8.37Q160.86 8.61 161.51 8.75Q162.16 8.89 163.06 8.89L163.06 8.89Q163.51 8.89 163.84 8.86Q164.18 8.83 164.46 8.78Q164.73 8.74 164.98 8.67Q165.22 8.60 165.48 8.52L165.48 8.52L165.48 7.39L162.63 7.39L162.63 5.33L168.01 5.33L168.01 10.13Q167.51 10.30 166.88 10.44Q166.26 10.58 165.59 10.68Q164.92 10.78 164.25 10.83Q163.58 10.89 162.99 10.89L162.99 10.89Q162.07 10.89 161.22 10.77Q160.37 10.64 159.64 10.39Q158.90 10.13 158.30 9.73Q157.69 9.34 157.26 8.79Q156.84 8.24 156.60 7.54Q156.37 6.83 156.37 5.95L156.37 5.95Q156.37 5.07 156.61 4.36Q156.86 3.65 157.30 3.10Q157.74 2.56 158.36 2.16Q158.98 1.76 159.72 1.51Q160.46 1.25 161.30 1.13Q162.15 1.00 163.04 1.00Z"></path></g><!----><g data-v-423bf9ae="" id="e902871b-a733-4b49-94ba-a76ddd1c7442" transform="matrix(3.2846711212765203,0,0,3.2846711212765203,-4.931379733365489,-13.595617319920635)" stroke="none" fill="black"><switch><g><path d="M14.9 31.6H2.7c-.6 0-1-.4-1-1s.4-1 1-1h12.1v-3.8H2.7c-.6 0-1-.4-1-1s.4-1 1-1h12.1c1.1 0 2 .9 2 2v3.8c.1 1.1-.8 2-1.9 2zM33 31.6H20.9c-1.1 0-2-.9-2-2v-3.8c0-1.1.9-2 2-2H33c.6 0 1 .4 1 1s-.4 1-1 1H20.9v3.8H33c.6 0 1 .4 1 1s-.4 1-1 1zM24.9 21.7H13.7c-1.1 0-2-.9-2-2v-3.8c0-1.1.9-2 2-2h11.1c1.1 0 2 .9 2 2v3.8c.1 1.2-.8 2-1.9 2zm-11.2-5.8v3.8h11.1v-3.8H13.7zM7.7 21.7h-5c-.6 0-1-.4-1-1s.4-1 1-1h5v-3.8h-5c-.6 0-1-.4-1-1s.4-1 1-1h5c1.1 0 2 .9 2 2v3.8c0 1.2-.8 2-2 2zM32.7 21.7h-1.9c-1.1 0-2-.9-2-2v-3.8c0-1.1.9-2 2-2h1.9c.6 0 1 .4 1 1s-.4 1-1 1h-1.9v3.8h1.9c.6 0 1 .4 1 1s-.4 1-1 1zM14.9 12H2.7c-.6 0-1-.4-1-1s.4-1 1-1h12.1V6.2H2.7c-.6 0-1-.4-1-1s.4-1 1-1h12.1c1.1 0 2 .9 2 2V10c.1 1.1-.8 2-1.9 2zM33 12H20.9c-1.1 0-2-.9-2-2V6.2c0-1.1.9-2 2-2H33c.6 0 1 .4 1 1s-.4 1-1 1H20.9V10H33c.6 0 1 .4 1 1s-.4 1-1 1z"></path></g></switch></g><!----></svg>